<svg width="12" height="14" viewBox="0 0 12 14" fill="none" xmlns="http://www.w3.org/2000/svg">
<path d="M11.2493 2.33333H9.44102C9.30563 1.67499 8.94741 1.08345 8.42675 0.658419C7.90608 0.233386 7.2548 0.000848473 6.58268 0L5.41602 0C4.7439 0.000848473 4.09262 0.233386 3.57195 0.658419C3.05129 1.08345 2.69307 1.67499 2.55768 2.33333H0.749349C0.594639 2.33333 0.446266 2.39479 0.33687 2.50419C0.227474 2.61358 0.166016 2.76196 0.166016 2.91667C0.166016 3.07138 0.227474 3.21975 0.33687 3.32915C0.446266 3.43854 0.594639 3.5 0.749349 3.5H1.33268V11.0833C1.33361 11.8566 1.6412 12.5979 2.18798 13.1447C2.73476 13.6915 3.47609 13.9991 4.24935 14H7.74935C8.52261 13.9991 9.26394 13.6915 9.81072 13.1447C10.3575 12.5979 10.6651 11.8566 10.666 11.0833V3.5H11.2493C11.4041 3.5 11.5524 3.43854 11.6618 3.32915C11.7712 3.21975 11.8327 3.07138 11.8327 2.91667C11.8327 2.76196 11.7712 2.61358 11.6618 2.50419C11.5524 2.39479 11.4041 2.33333 11.2493 2.33333ZM5.41602 1.16667H6.58268C6.94451 1.16711 7.29734 1.27947 7.59279 1.48834C7.88824 1.69721 8.11184 1.99237 8.23293 2.33333H3.76577C3.88686 1.99237 4.11046 1.69721 4.40591 1.48834C4.70136 1.27947 5.05419 1.16711 5.41602 1.16667ZM9.49935 11.0833C9.49935 11.5475 9.31498 11.9926 8.98679 12.3208C8.6586 12.649 8.21348 12.8333 7.74935 12.8333H4.24935C3.78522 12.8333 3.3401 12.649 3.01191 12.3208C2.68372 11.9926 2.49935 11.5475 2.49935 11.0833V3.5H9.49935V11.0833Z" fill="#4A90E3"/>
</svg>
