<svg width="20" height="20" viewBox="0 0 20 20" fill="none" xmlns="http://www.w3.org/2000/svg">
<path d="M10.8332 3.66683H3.49984C3.01361 3.66683 2.54729 3.85998 2.20347 4.2038C1.85966 4.54762 1.6665 5.01393 1.6665 5.50016V14.6668M1.6665 14.6668V16.5002C1.6665 16.9864 1.85966 17.4527 2.20347 17.7965C2.54729 18.1403 3.01361 18.3335 3.49984 18.3335H14.4998C14.9861 18.3335 15.4524 18.1403 15.7962 17.7965C16.14 17.4527 16.3332 16.9864 16.3332 16.5002V12.8335M1.6665 14.6668L5.87034 10.463C6.21414 10.1193 6.68037 9.92622 7.1665 9.92622C7.65264 9.92622 8.11887 10.1193 8.46267 10.463L10.8332 12.8335M16.3332 9.16683V12.8335M16.3332 12.8335L14.8793 11.3797C14.5355 11.036 14.0693 10.8429 13.5832 10.8429C13.097 10.8429 12.6308 11.036 12.287 11.3797L10.8332 12.8335M10.8332 12.8335L12.6665 14.6668M14.4998 3.66683H18.1665M16.3332 1.8335V5.50016M10.8332 7.3335H10.8423" stroke="#009347" stroke-width="2" stroke-linecap="round" stroke-linejoin="round"/>
</svg>
