<svg width="13" height="15" viewBox="0 0 13 15" fill="none" xmlns="http://www.w3.org/2000/svg">
<path d="M12.0039 10.6484C11.9857 10.612 11.9583 10.5755 11.9219 10.5391C11.612 10.2839 11.3021 9.85547 10.9922 9.25391C10.6823 8.65234 10.5182 7.71354 10.5 6.4375C10.4818 5.36198 10.1536 4.44141 9.51562 3.67578C8.85938 2.91016 8.02083 2.41797 7 2.19922V1.625C7 1.36979 6.91797 1.16016 6.75391 0.996094C6.58984 0.832031 6.38021 0.75 6.125 0.75C5.86979 0.75 5.66016 0.832031 5.49609 0.996094C5.33203 1.16016 5.25 1.36979 5.25 1.625V2.19922C4.22917 2.41797 3.39974 2.91016 2.76172 3.67578C2.10547 4.44141 1.76823 5.36198 1.75 6.4375C1.73177 7.71354 1.56771 8.65234 1.25781 9.25391C0.947917 9.85547 0.647135 10.2839 0.355469 10.5391C0.300781 10.5755 0.264323 10.612 0.246094 10.6484C0.0820312 10.8307 0 11.0312 0 11.25C0 11.487 0.0820312 11.6875 0.246094 11.8516C0.410156 12.0339 0.619792 12.125 0.875 12.125H11.375C11.6302 12.125 11.8398 12.0339 12.0039 11.8516C12.168 11.6875 12.25 11.487 12.25 11.25C12.25 11.0312 12.168 10.8307 12.0039 10.6484ZM1.85938 10.8125C2.15104 10.4479 2.42448 9.91927 2.67969 9.22656C2.91667 8.53385 3.04427 7.61328 3.0625 6.46484V6.4375C3.08073 5.5625 3.38151 4.84245 3.96484 4.27734C4.52995 3.69401 5.25 3.39323 6.125 3.375C7 3.39323 7.72005 3.69401 8.28516 4.27734C8.86849 4.84245 9.16927 5.5625 9.1875 6.4375V6.46484C9.20573 7.61328 9.33333 8.53385 9.57031 9.22656C9.82552 9.91927 10.1081 10.4479 10.418 10.8125H1.85938ZM6.09766 14.75C6.60807 14.7318 7.02734 14.5586 7.35547 14.2305C7.68359 13.9023 7.85677 13.4922 7.875 13H4.375C4.39323 13.4922 4.56641 13.9023 4.89453 14.2305C5.22266 14.5586 5.6237 14.7318 6.09766 14.75Z" fill="black"/>
</svg>
